# xmcd
#
# Track frame offsets: 
#        150
#        20486
#        39007
#        59759
#        80673
#        96793
#        117290
#        134736
#        155147
#        182216
#        200867
#        216639
#        235830
#        259859
#        279029
#        295620
#        318544
#        344730
#
# Disc length: 4790 seconds
#
# Revision: 1
# Processed by: cddbd v1.5.2PL0 Copyright (c) Steve Scherf et al.
# Submitted via: ExactAudioCopyFreeDBPlugin 1.0
#
DISCID=2012b412
DTITLE=Various Artist - Pure Swing 2013
DYEAR=2013
DGENRE=R&B
TTITLE0=Mary J. Blige - Real Love
TTITLE1=Beverley Knight - Flavour Of The Old School
TTITLE2=Soul For Real - Candy Rain
TTITLE3=Ralph Tresvant - Sensitivity
TTITLE4=Montell Jordan - Get It On Tonite
TTITLE5=SWV - I'm So Into You
TTITLE6=Bobby Brown - Evry Little Step
TTITLE7=Hi-F⁬Ive - She's Playing Hard To Get
TTITLE8=Soul II Soul - Keep On Movin' (feat. Caron Wheeler)(Teddy Rile
TTITLE8=y Remix)
TTITLE9=Guy - Dancin'
TTITLE10=Heavy D and The Boyz - Nuttin' But Love
TTITLE11=Zhane - Hey Mr. D.J.
TTITLE12=Aaron Hall - Don't Be Afraid
TTITLE13=Bobby Brown - Don't Be Cruel
TTITLE14=Montell Jordan - This Is How We Do It
TTITLE15=Wreckx‐N‐Effect - Rump Shaker
TTITLE16=Hi-Five - I Like The Way (The Kissing Game)(Street Remix)
TTITLE17=Guy - Groove Me
EXTD=
EXTT0=
EXTT1=
EXTT2=
EXTT3=
EXTT4=
EXTT5=
EXTT6=
EXTT7=
EXTT8=
EXTT9=
EXTT10=
EXTT11=
EXTT12=
EXTT13=
EXTT14=
EXTT15=
EXTT16=
EXTT17=
PLAYORDER=
